# xmcd
#
# Track frame offsets: 
#        150
#        19777
#        36097
#        48017
#        61375
#        81837
#        93687
#        125987
#        138557
#        158365
#        168607
#        185117
#        198657
#        210332
#        220050
#        234487
#
# Disc length: 3321 seconds
#
# Revision: 0
# Processed by: cddbd v1.5PL3 Copyright (c) Steve Scherf et al.
# Submitted via: ExactAudioCopy v0.95a5
#
DISCID=e40cf710
DTITLE=Various Artist - Chess Legendary Masters Series
DYEAR=1997
DGENRE=
TTITLE0=Coco Taylor - Insane Asylum
TTITLE1=John Lee Hooker - Deep Blue Sea
TTITLE2=Bo Diddley - I'm High Again
TTITLE3=Sugar Pie Desanto and Etta James - Do I Make Myself Clear
TTITLE4=Muddy Waters - Rock Me
TTITLE5=Fontella Bass and Bobby McClure - You're Gonna Miss Me
TTITLE6=Buddy Guy - Stone Crazy
TTITLE7=Howlin' Wolf - Spoonful
TTITLE8=The Dells - I Miss You
TTITLE9=Sonny Boy Williamson - Temperature 110
TTITLE10=Ramsey Lewis - Blues for the Night Owl
TTITLE11=Little Milton - Let's Get Together
TTITLE12=Jimmy Witherspoon - T.W.A.
TTITLE13=Willie Dickson - 29 Ways
TTITLE14=Little Walter - That's It
TTITLE15=Chuck Berry - Reelin' and Rockin'
EXTD=
EXTT0=
EXTT1=
EXTT2=
EXTT3=
EXTT4=
EXTT5=
EXTT6=
EXTT7=
EXTT8=
EXTT9=
EXTT10=
EXTT11=
EXTT12=
EXTT13=
EXTT14=
EXTT15=
PLAYORDER=
